<mxfile host="app.diagrams.net" modified="2024-01-14T20:32:31.953Z" agent="Mozilla/5.0 (X11; Linux x86_64) AppleWebKit/537.36 (KHTML, like Gecko) Chrome/120.0.0.0 Safari/537.36" version="22.1.18" etag="VQsh5LhhMwfKt59jl6hZ" type="github">
  <diagram name="Page-1" id="xakJnrUg3vhge9KZlaH8">
    <mxGraphModel>
      <root>
        <mxCell id="0" />
        <mxCell id="1" parent="0" />
      </root>
    </mxGraphModel>
  </diagram>
</mxfile>
